GREETZ: UnDeaD - BadGirl2k9 - virusofsaten - foxyb - WICCYWOLF - lizzymwah1

VISIT http://www.seedboxwprld.biz/ for all ur seedbox needs!

VISITfor all ur torrenting needs!

RELEASE NAME: Babylon.AD.2008.BDRip.XviD-SDTeam
RELEASED BY: UnDeaD & BadGirl2k9
SIZE: 405 MB

LANGUAGE: English
IMDb: http://www.imdb.com/title/tt0364970/

PLOT: In a near future, the mercenary Toorop is 
hired by the powerful criminal Gorsky to bring a 
woman named Aurora from a Noelite Convent in Central 
Asia to New York. In return, he would receive a high 
amount of money and a clear passport. Toorop joins Aurora 
and her guardian Sister Rebeka and they cross the dangerous 
Russia chased mercenaries that also want Aurora. Along their 
journey, Toorop discovers that Aurora has special abilities 
and once in New York, they see on the news that the Noelite 
Convent has been just bombed. When Aurora discloses that she 
is virgin and pregnant of twins, Toorop realizes that there is 
something dirty behind and Sister Rebeka and he will not be 
left alive by Gorsky.

SCREENS: 
http://i658.photobucket.com/albums/uu309/BadGirl2k9/screens/vlcsnap-2010-08-16-01h49m47s106.png 
http://i658.photobucket.com/albums/uu309/BadGirl2k9/screens/vlcsnap-2010-08-16-01h49m03s188.png 
http://i658.photobucket.com/albums/uu309/BadGirl2k9/screens/vlcsnap-2010-08-16-01h48m49s33.png

General
Complete name                    : C:\Users\root\Desktop\Babylon.AD.2008.720p.BDRip.XviD.AC3-ViSiON\Babylon.AD.2008.BDRip.XviD-SDTeam.avi
Format                           : AVI
Format/Info                      : Audio Video Interleave
File size                        : 405 MiB
Duration                         : 1h 38mn
Overall bit rate                 : 573 Kbps
Writing application              : MEncoder SVN-r22963
Writing library                  : MPlayer

Video
ID                               : 0
Format                           : MPEG-4 Visual
Format profile                   : Simple@L3
Format settings, BVOP            : No
Format settings, QPel            : No
Format settings, GMC             : No warppoints
Format settings, Matrix          : Default (H.263)
Codec ID                         : XVID
Codec ID/Hint                    : XviD
Duration                         : 1h 38mn
Bit rate                         : 497 Kbps
Width                            : 512 pixels
Height                           : 224 pixels
Display aspect ratio             : 2.25:1
Frame rate                       : 20.000 fps
Resolution                       : 8 bits
Colorimetry                      : 4:2:0
Scan type                        : Progressive
Bits/(Pixel*Frame)               : 0.217
Stream size                      : 352 MiB (87%)
Writing library                  : XviD 1.1.2 (UTC 2006-11-01)

Audio
ID                               : 1
Format                           : MPEG Audio
Format version                   : Version 1
Format profile                   : Layer 3
Codec ID                         : 55
Codec ID/Hint                    : MP3
Duration                         : 1h 38mn
Bit rate mode                    : Constant
Bit rate                         : 64.0 Kbps
Channel(s)                       : 2 channels
Sampling rate                    : 44.1 KHz
Stream size                      : 45.2 MiB (11%)
Alignment                        : Aligned on interleaves
Interleave, duration             : 26 ms (0.52 video frame)
Interleave, preload duration     : 522 ms